<svg width="88" height="68" viewBox="0 0 88 68" fill="none" xmlns="http://www.w3.org/2000/svg">
<path fill-rule="evenodd" clip-rule="evenodd" d="M30.4492 6H34.4492V10H30.4492H18.4492V6H30.4492ZM14.4492 14V10H18.4492V14H14.4492ZM14.4492 34H10.4492V30V14H14.4492V30V34ZM18.4492 38H14.4492V34H18.4492V38ZM22.4492 42H18.4492V38H22.4492V42ZM26.4492 46H22.4492V42H26.4492V46ZM30.4492 50H26.4492V46H30.4492V50ZM34.4492 54H30.4492V50H34.4492V54ZM46.4492 10V6H50.4492H62.4492V10H66.4492V14H70.4492V30V34H66.4492V38H62.4492V42H58.4492V46H54.4492V50H50.4492V54H46.4492V58H42.4492V62H38.4492V58H34.4492V54H38.4492H42.4492V50H46.4492V46H50.4492V42H54.4492V38H58.4492V34H62.4492V30V18H58.4492V14H54.4492V10H50.4492H46.4492ZM42.4492 14V10H46.4492V14H42.4492ZM38.4492 14H42.4492V18H38.4492V14ZM38.4492 14V10H34.4492V14H38.4492ZM22.4492 14H26.4492V18H22.4492V14ZM22.4492 18V22H18.4492V18H22.4492Z" fill="#1A1A1A"/>
</svg>
