<svg width="24" height="24" viewBox="0 0 24 24" fill="none" xmlns="http://www.w3.org/2000/svg">
<path d="M6.48522 11.425C6.18701 10.5252 5.48109 9.81925 4.58129 9.52104L2.15078 8.71554C1.46537 8.48839 1.46536 7.51885 2.15078 7.2917L4.58129 6.48619C5.48109 6.18799 6.18701 5.48206 6.48521 4.58227L7.29072 2.15176C7.51787 1.46634 8.48741 1.46634 8.71456 2.15175L9.52007 4.58227C9.81827 5.48206 10.5242 6.18799 11.424 6.48619L13.8545 7.2917C14.5399 7.51885 14.5399 8.48838 13.8545 8.71554L11.424 9.52104C10.5242 9.81925 9.81827 10.5252 9.52007 11.425L8.71456 13.8555C8.48741 14.5409 7.51787 14.5409 7.29072 13.8555L6.48522 11.425ZM17.0131 14.3823C16.8271 13.6974 16.2921 13.1623 15.6071 12.9763L13.7711 12.4777C13.2791 12.3441 13.2791 11.6463 13.7711 11.5127L15.6071 11.0141C16.2921 10.8281 16.8271 10.293 17.0131 9.60811L17.5117 7.77207C17.6453 7.28011 18.3431 7.28011 18.4767 7.77207L18.9753 9.60811C19.1613 10.293 19.6964 10.8281 20.3813 11.0141L22.2173 11.5127C22.7093 11.6463 22.7093 12.3441 22.2173 12.4777L20.3813 12.9763C19.6964 13.1623 19.1613 13.6974 18.9753 14.3823L18.4767 16.2183C18.3431 16.7103 17.6453 16.7103 17.5117 16.2183L17.0131 14.3823ZM10.3793 18.9187C10.7218 19.0117 10.9893 19.2792 11.0823 19.6216L11.5175 21.2241C11.6511 21.7161 12.3489 21.7161 12.4825 21.2241L12.9177 19.6216C13.0107 19.2792 13.2782 19.0117 13.6207 18.9187L15.2231 18.4835C15.7151 18.3499 15.7151 17.652 15.2231 17.5185L13.6207 17.0833C13.2782 16.9903 13.0107 16.7228 12.9177 16.3803L12.4825 14.7779C12.3489 14.2859 11.6511 14.2859 11.5175 14.7779L11.0823 16.3803C10.9893 16.7228 10.7218 16.9903 10.3793 17.0833L8.77688 17.5185C8.28492 17.652 8.28492 18.3499 8.77688 18.4835L10.3793 18.9187Z" fill="#1A1A1A"/>
</svg>
